<svg xmlns="http://www.w3.org/2000/svg" viewBox="0 0 320 180">
<defs>
<linearGradient id="g" x1="0" y1="0" x2="1" y2="1"><stop offset="0%" stop-color="#1a8a7a"/><stop offset="100%" stop-color="#0f5e52"/></linearGradient>
<linearGradient id="s" x1="0" y1="0" x2="0" y2="1"><stop offset="0%" stop-color="rgba(255,255,255,.16)"/><stop offset="100%" stop-color="rgba(255,255,255,.04)"/></linearGradient>
</defs>
<rect width="320" height="180" fill="url(#g)" rx="6"/>
<circle cx="50" cy="30" r="45" fill="rgba(255,255,255,.03)"/>
<circle cx="280" cy="155" r="40" fill="rgba(255,255,255,.03)"/>
<!-- people icons (crowd) -->
<circle cx="110" cy="36" r="8" fill="rgba(255,255,255,.1)" stroke="rgba(255,255,255,.3)" stroke-width=".8"/>
<path d="M98 52 C98 44 122 44 122 52" fill="rgba(255,255,255,.06)"/>
<circle cx="160" cy="32" r="10" fill="rgba(255,255,255,.12)" stroke="rgba(255,255,255,.35)" stroke-width="1"/>
<path d="M146 52 C146 42 174 42 174 52" fill="rgba(255,255,255,.08)"/>
<circle cx="210" cy="36" r="8" fill="rgba(255,255,255,.1)" stroke="rgba(255,255,255,.3)" stroke-width=".8"/>
<path d="M198 52 C198 44 222 44 222 52" fill="rgba(255,255,255,.06)"/>
<!-- connection lines -->
<line x1="120" y1="40" x2="148" y2="36" stroke="rgba(255,255,255,.15)" stroke-width=".8"/>
<line x1="172" y1="36" x2="200" y2="40" stroke="rgba(255,255,255,.15)" stroke-width=".8"/>
<!-- platform boxes -->
<rect x="88" y="60" width="52" height="18" rx="3" fill="rgba(255,255,255,.08)" stroke="rgba(255,255,255,.25)" stroke-width=".8"/>
<text x="114" y="73" text-anchor="middle" fill="rgba(255,255,255,.5)" font-family="sans-serif" font-size="7">CrowdWorks</text>
<rect x="180" y="60" width="52" height="18" rx="3" fill="rgba(255,255,255,.08)" stroke="rgba(255,255,255,.25)" stroke-width=".8"/>
<text x="206" y="73" text-anchor="middle" fill="rgba(255,255,255,.5)" font-family="sans-serif" font-size="7">ココナラ</text>
<text x="160" y="116" text-anchor="middle" fill="rgba(255,255,255,.95)" font-family="sans-serif" font-size="12" font-weight="600">クラウドソーシングで依頼</text>
<text x="160" y="136" text-anchor="middle" fill="rgba(255,255,255,.6)" font-family="sans-serif" font-size="11">CrowdWorks・ココナラ比較</text>
<rect x="120" y="148" width="80" height="1" rx=".5" fill="rgba(255,255,255,.15)"/>
</svg>
