<svg xmlns="http://www.w3.org/2000/svg" viewBox="0 0 320 180">
<defs>
<linearGradient id="g" x1="0" y1="0" x2="1" y2="1"><stop offset="0%" stop-color="#1a8a7a"/><stop offset="100%" stop-color="#0f5e52"/></linearGradient>
<linearGradient id="s" x1="0" y1="0" x2="0" y2="1"><stop offset="0%" stop-color="rgba(255,255,255,.16)"/><stop offset="100%" stop-color="rgba(255,255,255,.04)"/></linearGradient>
</defs>
<rect width="320" height="180" fill="url(#g)" rx="6"/>
<circle cx="50" cy="30" r="45" fill="rgba(255,255,255,.03)"/>
<circle cx="280" cy="155" r="40" fill="rgba(255,255,255,.03)"/>
<!-- clipboard -->
<rect x="108" y="20" width="56" height="68" rx="4" fill="url(#s)" stroke="rgba(255,255,255,.4)" stroke-width="1.2"/>
<rect x="124" y="16" width="24" height="8" rx="2" fill="rgba(255,255,255,.15)" stroke="rgba(255,255,255,.3)" stroke-width=".8"/>
<!-- checklist lines -->
<rect x="118" y="34" width="8" height="8" rx="1" fill="none" stroke="rgba(255,255,255,.3)" stroke-width=".8"/>
<path d="M119 38 L122 41 L126 35" fill="none" stroke="rgba(100,220,180,.6)" stroke-width="1" stroke-linecap="round"/>
<line x1="130" y1="38" x2="154" y2="38" stroke="rgba(255,255,255,.3)" stroke-width="1.2" stroke-linecap="round"/>
<rect x="118" y="48" width="8" height="8" rx="1" fill="none" stroke="rgba(255,255,255,.3)" stroke-width=".8"/>
<path d="M119 52 L122 55 L126 49" fill="none" stroke="rgba(100,220,180,.6)" stroke-width="1" stroke-linecap="round"/>
<line x1="130" y1="52" x2="150" y2="52" stroke="rgba(255,255,255,.3)" stroke-width="1.2" stroke-linecap="round"/>
<rect x="118" y="62" width="8" height="8" rx="1" fill="none" stroke="rgba(255,255,255,.25)" stroke-width=".8"/>
<line x1="130" y1="66" x2="152" y2="66" stroke="rgba(255,255,255,.25)" stroke-width="1.2" stroke-linecap="round"/>
<!-- arrow pointing to image -->
<path d="M174 50 L194 50" stroke="rgba(255,255,255,.3)" stroke-width="1.5" stroke-linecap="round"/>
<path d="M190 46 L196 50 L190 54" fill="none" stroke="rgba(255,255,255,.3)" stroke-width="1.5" stroke-linecap="round"/>
<!-- image frame -->
<rect x="202" y="32" width="36" height="36" rx="3" fill="url(#s)" stroke="rgba(255,255,255,.35)" stroke-width="1"/>
<circle cx="214" cy="44" r="5" fill="rgba(255,255,255,.15)"/>
<path d="M204 62 L214 52 L222 56 L236 44" fill="none" stroke="rgba(255,255,255,.15)" stroke-width="1"/>
<text x="160" y="116" text-anchor="middle" fill="rgba(255,255,255,.95)" font-family="sans-serif" font-size="13" font-weight="600">レタッチ指示書の書き方</text>
<text x="160" y="136" text-anchor="middle" fill="rgba(255,255,255,.6)" font-family="sans-serif" font-size="11">プロに伝わる依頼のコツ</text>
<rect x="120" y="148" width="80" height="1" rx=".5" fill="rgba(255,255,255,.15)"/>
</svg>
