<svg xmlns="http://www.w3.org/2000/svg" viewBox="0 0 320 180">
<defs><linearGradient id="g" x1="0" y1="0" x2="1" y2="1"><stop offset="0%" stop-color="#2d8659"/><stop offset="100%" stop-color="#1a5c3a"/></linearGradient></defs>
<rect width="320" height="180" fill="url(#g)" rx="6"/>
<circle cx="50" cy="30" r="45" fill="rgba(255,255,255,.03)"/>
<circle cx="280" cy="155" r="40" fill="rgba(255,255,255,.03)"/>
<rect x="100" y="28" width="36" height="36" rx="3" fill="rgba(255,255,255,.08)" stroke="rgba(255,255,255,.3)" stroke-width="1"/>
<circle cx="112" cy="40" r="4" fill="rgba(255,255,255,.15)"/>
<rect x="150" y="28" width="36" height="36" rx="3" fill="rgba(255,255,255,.08)" stroke="rgba(255,255,255,.3)" stroke-width="1"/>
<line x1="158" y1="40" x2="178" y2="40" stroke="rgba(255,255,255,.2)" stroke-width="1.5" stroke-linecap="round"/>
<line x1="158" y1="48" x2="174" y2="48" stroke="rgba(255,255,255,.15)" stroke-width="1.5" stroke-linecap="round"/>
<rect x="200" y="28" width="36" height="36" rx="3" fill="rgba(255,255,255,.08)" stroke="rgba(255,255,255,.3)" stroke-width="1"/>
<circle cx="218" cy="42" r="8" fill="rgba(255,255,255,.06)" stroke="rgba(255,255,255,.2)" stroke-width=".8"/>
<circle cx="218" cy="42" r="3" fill="rgba(255,255,255,.15)"/>
<text x="118" y="78" text-anchor="middle" fill="rgba(255,255,255,.4)" font-family="sans-serif" font-size="7">EC特化</text>
<text x="168" y="78" text-anchor="middle" fill="rgba(255,255,255,.4)" font-family="sans-serif" font-size="7">汎用</text>
<text x="218" y="78" text-anchor="middle" fill="rgba(255,255,255,.4)" font-family="sans-serif" font-size="7">個人向け</text>
<text x="160" y="108" text-anchor="middle" fill="rgba(255,255,255,.95)" font-family="sans-serif" font-size="13" font-weight="600">画像加工の代行サービス</text>
<text x="160" y="128" text-anchor="middle" fill="rgba(255,255,255,.6)" font-family="sans-serif" font-size="11">EC向け・個人向けの違い</text>
<rect x="120" y="140" width="80" height="1" rx=".5" fill="rgba(255,255,255,.15)"/>
</svg>
