<svg xmlns="http://www.w3.org/2000/svg" viewBox="0 0 320 180">
<defs><linearGradient id="g" x1="0" y1="0" x2="1" y2="1"><stop offset="0%" stop-color="#1a8a7a"/><stop offset="100%" stop-color="#0f5e52"/></linearGradient></defs>
<rect width="320" height="180" fill="url(#g)" rx="6"/>
<circle cx="50" cy="30" r="45" fill="rgba(255,255,255,.03)"/>
<circle cx="280" cy="155" r="40" fill="rgba(255,255,255,.03)"/>
<circle cx="100" cy="44" r="12" fill="rgba(255,255,255,.1)" stroke="rgba(255,255,255,.35)" stroke-width="1"/>
<text x="100" y="48" text-anchor="middle" fill="rgba(255,255,255,.6)" font-family="sans-serif" font-size="10" font-weight="700">1</text>
<line x1="114" y1="44" x2="130" y2="44" stroke="rgba(255,255,255,.2)" stroke-width="1.5"/>
<circle cx="144" cy="44" r="12" fill="rgba(255,255,255,.1)" stroke="rgba(255,255,255,.35)" stroke-width="1"/>
<text x="144" y="48" text-anchor="middle" fill="rgba(255,255,255,.6)" font-family="sans-serif" font-size="10" font-weight="700">2</text>
<line x1="158" y1="44" x2="174" y2="44" stroke="rgba(255,255,255,.2)" stroke-width="1.5"/>
<circle cx="188" cy="44" r="12" fill="rgba(255,255,255,.1)" stroke="rgba(255,255,255,.35)" stroke-width="1"/>
<text x="188" y="48" text-anchor="middle" fill="rgba(255,255,255,.6)" font-family="sans-serif" font-size="10" font-weight="700">3</text>
<line x1="202" y1="44" x2="218" y2="44" stroke="rgba(255,255,255,.2)" stroke-width="1.5"/>
<circle cx="232" cy="44" r="12" fill="rgba(255,255,255,.15)" stroke="rgba(255,255,255,.4)" stroke-width="1"/>
<path d="M228 44 L231 47 L237 41" fill="none" stroke="rgba(255,255,255,.6)" stroke-width="1.2" stroke-linecap="round"/>
<text x="100" y="68" text-anchor="middle" fill="rgba(255,255,255,.4)" font-family="sans-serif" font-size="7">見積り</text>
<text x="144" y="68" text-anchor="middle" fill="rgba(255,255,255,.4)" font-family="sans-serif" font-size="7">入稿</text>
<text x="188" y="68" text-anchor="middle" fill="rgba(255,255,255,.4)" font-family="sans-serif" font-size="7">確認</text>
<text x="232" y="68" text-anchor="middle" fill="rgba(255,255,255,.4)" font-family="sans-serif" font-size="7">納品</text>
<text x="160" y="108" text-anchor="middle" fill="rgba(255,255,255,.95)" font-family="sans-serif" font-size="13" font-weight="600">プロに依頼するときの流れ</text>
<text x="160" y="128" text-anchor="middle" fill="rgba(255,255,255,.6)" font-family="sans-serif" font-size="11">初めてでも安心ガイド</text>
<rect x="120" y="140" width="80" height="1" rx=".5" fill="rgba(255,255,255,.15)"/>
</svg>
