<svg xmlns="http://www.w3.org/2000/svg" viewBox="0 0 320 180">
<defs>
<linearGradient id="g" x1="0" y1="0" x2="1" y2="1"><stop offset="0%" stop-color="#1a8a7a"/><stop offset="100%" stop-color="#0f5e52"/></linearGradient>
<linearGradient id="s" x1="0" y1="0" x2="0" y2="1"><stop offset="0%" stop-color="rgba(255,255,255,.16)"/><stop offset="100%" stop-color="rgba(255,255,255,.04)"/></linearGradient>
</defs>
<rect width="320" height="180" fill="url(#g)" rx="6"/>
<circle cx="50" cy="30" r="45" fill="rgba(255,255,255,.03)"/>
<circle cx="275" cy="150" r="40" fill="rgba(255,255,255,.03)"/>
<!-- photo frame (portrait style) -->
<rect x="126" y="20" width="48" height="58" rx="2" fill="url(#s)" stroke="rgba(255,255,255,.4)" stroke-width="1.2"/>
<rect x="130" y="24" width="40" height="50" rx="1" fill="rgba(255,255,255,.04)"/>
<circle cx="150" cy="42" r="10" fill="rgba(255,255,255,.1)" stroke="rgba(255,255,255,.2)" stroke-width=".8"/>
<path d="M136 66 C136 56 164 56 164 66" fill="rgba(255,255,255,.06)"/>
<!-- flower accent -->
<circle cx="196" cy="40" r="5" fill="rgba(255,255,255,.1)"/>
<circle cx="190" cy="36" r="3" fill="rgba(255,255,255,.08)"/>
<circle cx="202" cy="36" r="3" fill="rgba(255,255,255,.08)"/>
<circle cx="196" cy="32" r="3" fill="rgba(255,255,255,.08)"/>
<circle cx="196" cy="40" r="2" fill="rgba(255,255,255,.2)"/>
<!-- retouch brush -->
<line x1="210" y1="58" x2="230" y2="38" stroke="rgba(255,255,255,.3)" stroke-width="2" stroke-linecap="round"/>
<circle cx="230" cy="38" r="4" fill="rgba(255,255,255,.2)"/>
<text x="160" y="116" text-anchor="middle" fill="rgba(255,255,255,.95)" font-family="sans-serif" font-size="14" font-weight="600">遺影写真のレタッチ</text>
<text x="160" y="136" text-anchor="middle" fill="rgba(255,255,255,.6)" font-family="sans-serif" font-size="11">料金・依頼先・注意点ガイド</text>
<rect x="120" y="148" width="80" height="1" rx=".5" fill="rgba(255,255,255,.15)"/>
</svg>
