<svg xmlns="http://www.w3.org/2000/svg" viewBox="0 0 320 180">
<defs><linearGradient id="g" x1="0" y1="0" x2="1" y2="1"><stop offset="0%" stop-color="#1a8a7a"/><stop offset="100%" stop-color="#0f5e52"/></linearGradient></defs>
<rect width="320" height="180" fill="url(#g)" rx="6"/>
<circle cx="50" cy="30" r="45" fill="rgba(255,255,255,.03)"/>
<circle cx="280" cy="155" r="40" fill="rgba(255,255,255,.03)"/>
<circle cx="120" cy="42" r="16" fill="rgba(255,255,255,.08)" stroke="rgba(255,255,255,.3)" stroke-width="1"/>
<path d="M108 66 C108 56 132 56 132 66" fill="rgba(255,255,255,.06)"/>
<path d="M144 42 L164 42" stroke="rgba(255,255,255,.3)" stroke-width="1.5" stroke-linecap="round"/>
<path d="M160 38 L166 42 L160 46" fill="none" stroke="rgba(255,255,255,.3)" stroke-width="1.5" stroke-linecap="round"/>
<rect x="176" y="28" width="40" height="32" rx="3" fill="rgba(255,255,255,.08)" stroke="rgba(255,255,255,.35)" stroke-width="1"/>
<circle cx="190" cy="40" r="5" fill="rgba(255,255,255,.12)"/>
<path d="M178 54 L190 44 L198 48 L214 38" fill="none" stroke="rgba(255,255,255,.1)" stroke-width="1"/>
<path d="M224 34 L226 28 L228 34 L234 36 L228 38 L226 44 L224 38 L218 36 Z" fill="rgba(255,255,255,.25)"/>
<text x="160" y="100" text-anchor="middle" fill="rgba(255,255,255,.95)" font-family="sans-serif" font-size="13" font-weight="600">レタッチを個人で依頼</text>
<text x="160" y="120" text-anchor="middle" fill="rgba(255,255,255,.6)" font-family="sans-serif" font-size="11">依頼先の種類と選び方</text>
<rect x="120" y="132" width="80" height="1" rx=".5" fill="rgba(255,255,255,.15)"/>
</svg>
