<svg xmlns="http://www.w3.org/2000/svg" viewBox="0 0 320 180">
<defs>
<linearGradient id="g" x1="0" y1="0" x2="1" y2="1"><stop offset="0%" stop-color="#1a8a7a"/><stop offset="100%" stop-color="#0f5e52"/></linearGradient>
<linearGradient id="s" x1="0" y1="0" x2="0" y2="1"><stop offset="0%" stop-color="rgba(255,255,255,.16)"/><stop offset="100%" stop-color="rgba(255,255,255,.04)"/></linearGradient>
</defs>
<rect width="320" height="180" fill="url(#g)" rx="6"/>
<circle cx="50" cy="30" r="45" fill="rgba(255,255,255,.03)"/>
<circle cx="280" cy="155" r="40" fill="rgba(255,255,255,.03)"/>
<!-- smartphone -->
<rect x="100" y="22" width="36" height="60" rx="5" fill="url(#s)" stroke="rgba(255,255,255,.4)" stroke-width="1.2"/>
<rect x="104" y="30" width="28" height="40" rx="1" fill="rgba(255,255,255,.04)"/>
<circle cx="118" cy="50" r="8" fill="rgba(255,255,255,.1)"/>
<path d="M108 64 C108 58 128 58 128 64" fill="rgba(255,255,255,.06)"/>
<!-- heart -->
<path d="M155 42 C155 36 162 32 166 38 C170 32 177 36 177 42 C177 52 166 58 166 58 C166 58 155 52 155 42 Z" fill="rgba(255,200,200,.2)" stroke="rgba(255,255,255,.35)" stroke-width=".8"/>
<!-- vs arrow -->
<path d="M148 50 L188 50" stroke="rgba(255,255,255,.2)" stroke-width="1" stroke-dasharray="3 2"/>
<!-- pro retouch result -->
<rect x="196" y="26" width="40" height="50" rx="3" fill="url(#s)" stroke="rgba(255,255,255,.45)" stroke-width="1.2"/>
<circle cx="216" cy="44" r="8" fill="rgba(255,255,255,.12)"/>
<path d="M204 68 C204 60 228 60 228 68" fill="rgba(255,255,255,.08)"/>
<!-- sparkle on pro -->
<path d="M230 30 L232 26 L234 30 L238 32 L234 34 L232 38 L230 34 L226 32 Z" fill="rgba(255,255,255,.3)"/>
<text x="160" y="116" text-anchor="middle" fill="rgba(255,255,255,.95)" font-family="sans-serif" font-size="13" font-weight="600">婚活写真のレタッチ</text>
<text x="160" y="136" text-anchor="middle" fill="rgba(255,255,255,.6)" font-family="sans-serif" font-size="11">プロに頼むべき？アプリとの違い</text>
<rect x="120" y="148" width="80" height="1" rx=".5" fill="rgba(255,255,255,.15)"/>
</svg>
