<svg xmlns="http://www.w3.org/2000/svg" viewBox="0 0 320 180">
<defs><linearGradient id="g" x1="0" y1="0" x2="1" y2="1"><stop offset="0%" stop-color="#dc7a28"/><stop offset="100%" stop-color="#a16207"/></linearGradient></defs>
<rect width="320" height="180" fill="url(#g)" rx="6"/>
<circle cx="50" cy="30" r="45" fill="rgba(255,255,255,.03)"/>
<circle cx="280" cy="155" r="40" fill="rgba(255,255,255,.03)"/>
<rect x="100" y="24" width="40" height="48" rx="2" fill="rgba(255,255,255,.06)" stroke="rgba(255,255,255,.25)" stroke-width="1"/>
<line x1="100" y1="36" x2="116" y2="50" stroke="rgba(255,255,255,.15)" stroke-width="1.5"/>
<line x1="108" y1="24" x2="130" y2="46" stroke="rgba(255,255,255,.1)" stroke-width="1"/>
<circle cx="120" cy="40" r="6" fill="rgba(255,255,255,.08)"/>
<path d="M150 46 L170 46" stroke="rgba(255,255,255,.3)" stroke-width="1.5" stroke-linecap="round"/>
<path d="M166 42 L172 46 L166 50" fill="none" stroke="rgba(255,255,255,.3)" stroke-width="1.5" stroke-linecap="round"/>
<rect x="180" y="24" width="40" height="48" rx="2" fill="rgba(255,255,255,.1)" stroke="rgba(255,255,255,.4)" stroke-width="1.2"/>
<circle cx="200" cy="40" r="6" fill="rgba(255,255,255,.15)"/>
<path d="M224 30 L226 24 L228 30 L234 32 L228 34 L226 40 L224 34 L218 32 Z" fill="rgba(255,255,255,.25)"/>
<text x="160" y="108" text-anchor="middle" fill="rgba(255,255,255,.95)" font-family="sans-serif" font-size="13" font-weight="600">古い写真の復元・修復</text>
<text x="160" y="128" text-anchor="middle" fill="rgba(255,255,255,.6)" font-family="sans-serif" font-size="11">料金と依頼先の選び方</text>
<rect x="120" y="140" width="80" height="1" rx=".5" fill="rgba(255,255,255,.15)"/>
</svg>
