<svg xmlns="http://www.w3.org/2000/svg" viewBox="0 0 320 180">
<defs><linearGradient id="g" x1="0" y1="0" x2="1" y2="1"><stop offset="0%" stop-color="#2e6b8a"/><stop offset="100%" stop-color="#1a4a62"/></linearGradient></defs>
<rect width="320" height="180" fill="url(#g)" rx="6"/>
<circle cx="50" cy="30" r="45" fill="rgba(255,255,255,.03)"/>
<circle cx="280" cy="155" r="40" fill="rgba(255,255,255,.03)"/>
<rect x="92" y="30" width="36" height="28" rx="3" fill="rgba(255,255,255,.08)" stroke="rgba(255,255,255,.35)" stroke-width="1"/>
<circle cx="110" cy="44" r="8" fill="rgba(255,255,255,.05)" stroke="rgba(255,255,255,.25)" stroke-width=".8"/>
<circle cx="110" cy="44" r="3" fill="rgba(255,255,255,.15)"/>
<text x="110" y="72" text-anchor="middle" fill="rgba(255,255,255,.4)" font-family="sans-serif" font-size="7">撮影</text>
<path d="M136 44 L156 44" stroke="rgba(255,255,255,.25)" stroke-width="1.5" stroke-linecap="round"/>
<path d="M152 40 L158 44 L152 48" fill="none" stroke="rgba(255,255,255,.25)" stroke-width="1.5" stroke-linecap="round"/>
<rect x="166" y="26" width="50" height="40" rx="3" fill="rgba(255,255,255,.08)" stroke="rgba(255,255,255,.35)" stroke-width="1"/>
<line x1="176" y1="40" x2="206" y2="40" stroke="rgba(255,255,255,.2)" stroke-width="1.5" stroke-linecap="round"/>
<circle cx="192" cy="40" r="2.5" fill="rgba(255,255,255,.4)"/>
<line x1="176" y1="50" x2="206" y2="50" stroke="rgba(255,255,255,.2)" stroke-width="1.5" stroke-linecap="round"/>
<circle cx="198" cy="50" r="2.5" fill="rgba(255,255,255,.4)"/>
<text x="191" y="78" text-anchor="middle" fill="rgba(255,255,255,.4)" font-family="sans-serif" font-size="7">レタッチ外注</text>
<text x="160" y="108" text-anchor="middle" fill="rgba(255,255,255,.95)" font-family="sans-serif" font-size="12" font-weight="600">カメラマンのレタッチ外注</text>
<text x="160" y="128" text-anchor="middle" fill="rgba(255,255,255,.6)" font-family="sans-serif" font-size="11">料金・依頼先・注意点</text>
<rect x="120" y="140" width="80" height="1" rx=".5" fill="rgba(255,255,255,.15)"/>
</svg>
