<svg xmlns="http://www.w3.org/2000/svg" viewBox="0 0 320 180">
<defs>
<linearGradient id="g" x1="0" y1="0" x2="1" y2="1"><stop offset="0%" stop-color="#1a8a7a"/><stop offset="100%" stop-color="#0f5e52"/></linearGradient>
<linearGradient id="s" x1="0" y1="0" x2="0" y2="1"><stop offset="0%" stop-color="rgba(255,255,255,.16)"/><stop offset="100%" stop-color="rgba(255,255,255,.04)"/></linearGradient>
</defs>
<rect width="320" height="180" fill="url(#g)" rx="6"/>
<circle cx="50" cy="30" r="45" fill="rgba(255,255,255,.03)"/>
<circle cx="280" cy="155" r="40" fill="rgba(255,255,255,.03)"/>
<!-- down arrow (cost reduction) -->
<path d="M110 30 L110 60 L100 60 L118 76 L136 60 L126 60 L126 30 Z" fill="url(#s)" stroke="rgba(255,255,255,.4)" stroke-width="1"/>
<text x="118" y="52" text-anchor="middle" fill="rgba(255,255,255,.6)" font-family="sans-serif" font-size="11" font-weight="700">¥</text>
<!-- coins stack -->
<ellipse cx="180" cy="62" rx="22" ry="6" fill="rgba(255,255,255,.08)" stroke="rgba(255,255,255,.25)" stroke-width=".8"/>
<ellipse cx="180" cy="54" rx="22" ry="6" fill="rgba(255,255,255,.08)" stroke="rgba(255,255,255,.25)" stroke-width=".8"/>
<ellipse cx="180" cy="46" rx="22" ry="6" fill="rgba(255,255,255,.1)" stroke="rgba(255,255,255,.3)" stroke-width=".8"/>
<!-- scissors icon -->
<circle cx="224" cy="40" r="6" fill="none" stroke="rgba(255,255,255,.35)" stroke-width="1"/>
<circle cx="224" cy="56" r="6" fill="none" stroke="rgba(255,255,255,.35)" stroke-width="1"/>
<line x1="228" y1="36" x2="240" y2="52" stroke="rgba(255,255,255,.35)" stroke-width="1.2"/>
<line x1="228" y1="60" x2="240" y2="44" stroke="rgba(255,255,255,.35)" stroke-width="1.2"/>
<text x="160" y="116" text-anchor="middle" fill="rgba(255,255,255,.95)" font-family="sans-serif" font-size="13" font-weight="600">レタッチを安く外注する方法</text>
<text x="160" y="136" text-anchor="middle" fill="rgba(255,255,255,.6)" font-family="sans-serif" font-size="11">費用を抑える5つのコツ</text>
<rect x="120" y="148" width="80" height="1" rx=".5" fill="rgba(255,255,255,.15)"/>
</svg>
