<svg xmlns="http://www.w3.org/2000/svg" viewBox="0 0 320 180">
<defs><linearGradient id="g" x1="0" y1="0" x2="1" y2="1"><stop offset="0%" stop-color="#1a8a7a"/><stop offset="100%" stop-color="#0f5e52"/></linearGradient></defs>
<rect width="320" height="180" fill="url(#g)" rx="6"/>
<circle cx="50" cy="30" r="45" fill="rgba(255,255,255,.03)"/>
<circle cx="280" cy="155" r="40" fill="rgba(255,255,255,.03)"/>
<rect x="110" y="22" width="100" height="56" rx="4" fill="rgba(255,255,255,.06)" stroke="rgba(255,255,255,.3)" stroke-width="1"/>
<rect x="120" y="32" width="10" height="10" rx="1" fill="none" stroke="rgba(255,255,255,.3)" stroke-width=".8"/>
<path d="M121 37 L124 40 L130 34" fill="none" stroke="rgba(100,220,180,.6)" stroke-width="1" stroke-linecap="round"/>
<line x1="136" y1="37" x2="200" y2="37" stroke="rgba(255,255,255,.25)" stroke-width="1.2" stroke-linecap="round"/>
<rect x="120" y="48" width="10" height="10" rx="1" fill="none" stroke="rgba(255,255,255,.3)" stroke-width=".8"/>
<path d="M121 53 L124 56 L130 50" fill="none" stroke="rgba(100,220,180,.6)" stroke-width="1" stroke-linecap="round"/>
<line x1="136" y1="53" x2="196" y2="53" stroke="rgba(255,255,255,.25)" stroke-width="1.2" stroke-linecap="round"/>
<rect x="120" y="64" width="10" height="10" rx="1" fill="none" stroke="rgba(255,255,255,.25)" stroke-width=".8"/>
<line x1="136" y1="69" x2="192" y2="69" stroke="rgba(255,255,255,.2)" stroke-width="1.2" stroke-linecap="round"/>
<text x="160" y="108" text-anchor="middle" fill="rgba(255,255,255,.95)" font-family="sans-serif" font-size="13" font-weight="600">レタッチ依頼で失敗しない</text>
<text x="160" y="128" text-anchor="middle" fill="rgba(255,255,255,.6)" font-family="sans-serif" font-size="11">5つのコツ｜初心者向け</text>
<rect x="120" y="140" width="80" height="1" rx=".5" fill="rgba(255,255,255,.15)"/>
</svg>
