<svg xmlns="http://www.w3.org/2000/svg" viewBox="0 0 320 180">
<defs>
<linearGradient id="g" x1="0" y1="0" x2="1" y2="1"><stop offset="0%" stop-color="#1a8a7a"/><stop offset="100%" stop-color="#0f5e52"/></linearGradient>
<linearGradient id="s" x1="0" y1="0" x2="0" y2="1"><stop offset="0%" stop-color="rgba(255,255,255,.16)"/><stop offset="100%" stop-color="rgba(255,255,255,.04)"/></linearGradient>
</defs>
<rect width="320" height="180" fill="url(#g)" rx="6"/>
<circle cx="50" cy="30" r="45" fill="rgba(255,255,255,.03)"/>
<circle cx="280" cy="155" r="40" fill="rgba(255,255,255,.03)"/>
<!-- ID photo frame -->
<rect x="108" y="24" width="44" height="54" rx="3" fill="url(#s)" stroke="rgba(255,255,255,.4)" stroke-width="1.2"/>
<circle cx="130" cy="42" r="10" fill="rgba(255,255,255,.1)" stroke="rgba(255,255,255,.25)" stroke-width=".8"/>
<path d="M116 68 C116 58 144 58 144 68" fill="rgba(255,255,255,.08)"/>
<!-- OK check -->
<circle cx="178" cy="38" r="14" fill="rgba(255,255,255,.08)" stroke="rgba(100,220,180,.6)" stroke-width="1.2"/>
<path d="M172 38 L176 42 L184 34" fill="none" stroke="rgba(100,220,180,.7)" stroke-width="1.5" stroke-linecap="round"/>
<!-- NG cross -->
<circle cx="220" cy="38" r="14" fill="rgba(255,255,255,.08)" stroke="rgba(255,120,100,.5)" stroke-width="1.2"/>
<path d="M214 32 L226 44 M226 32 L214 44" stroke="rgba(255,120,100,.6)" stroke-width="1.5" stroke-linecap="round"/>
<!-- line -->
<line x1="170" y1="60" x2="234" y2="60" stroke="rgba(255,255,255,.15)" stroke-width="1"/>
<text x="202" y="74" text-anchor="middle" fill="rgba(255,255,255,.5)" font-family="sans-serif" font-size="8">OK / NG ライン</text>
<text x="160" y="116" text-anchor="middle" fill="rgba(255,255,255,.95)" font-family="sans-serif" font-size="13" font-weight="600">証明写真のレタッチNG</text>
<text x="160" y="136" text-anchor="middle" fill="rgba(255,255,255,.6)" font-family="sans-serif" font-size="11">どこまでOK？用途別まとめ</text>
<rect x="120" y="148" width="80" height="1" rx=".5" fill="rgba(255,255,255,.15)"/>
</svg>
