<svg xmlns="http://www.w3.org/2000/svg" viewBox="0 0 320 180">
<defs>
<linearGradient id="g" x1="0" y1="0" x2="1" y2="1"><stop offset="0%" stop-color="#0891b2"/><stop offset="100%" stop-color="#155e75"/></linearGradient>
</defs>
<rect width="320" height="180" fill="url(#g)" rx="6"/>
<circle cx="270" cy="25" r="50" fill="rgba(255,255,255,.04)"/>
<circle cx="40" cy="150" r="35" fill="rgba(255,255,255,.04)"/>
<!-- before: colored bg -->
<rect x="78" y="20" width="66" height="56" rx="4" fill="rgba(255,255,255,.12)" stroke="rgba(255,255,255,.3)" stroke-width=".8"/>
<rect x="82" y="24" width="58" height="48" rx="2" fill="rgba(120,180,200,.2)"/>
<circle cx="111" cy="40" r="10" fill="rgba(255,255,255,.3)"/>
<path d="M96 58l10-12 6 8 6-4 10 12H96z" fill="rgba(255,255,255,.25)"/>
<text x="111" y="80" text-anchor="middle" fill="rgba(255,255,255,.4)" font-family="sans-serif" font-size="7">Before</text>
<!-- arrow -->
<path d="M152 48l10 0" stroke="rgba(255,255,255,.5)" stroke-width="1.5" stroke-linecap="round"/>
<path d="M159 44l4 4-4 4" fill="none" stroke="rgba(255,255,255,.5)" stroke-width="1.5" stroke-linecap="round" stroke-linejoin="round"/>
<!-- after: white bg -->
<rect x="176" y="20" width="66" height="56" rx="4" fill="rgba(255,255,255,.85)" stroke="rgba(255,255,255,.4)" stroke-width=".8"/>
<circle cx="209" cy="40" r="10" fill="rgba(46,107,138,.25)"/>
<path d="M194 58l10-12 6 8 6-4 10 12H194z" fill="rgba(46,107,138,.2)"/>
<text x="209" y="80" text-anchor="middle" fill="rgba(255,255,255,.4)" font-family="sans-serif" font-size="7">After</text>
<!-- checkmark -->
<circle cx="234" cy="26" r="7" fill="rgba(255,255,255,.3)"/>
<path d="M230 26l3 3 5-5" fill="none" stroke="#fff" stroke-width="1.5" stroke-linecap="round" stroke-linejoin="round"/>
<!-- text -->
<text x="160" y="118" text-anchor="middle" fill="rgba(255,255,255,.95)" font-family="'Helvetica Neue',sans-serif" font-size="15" font-weight="700" letter-spacing=".5">背景白抜きの方法</text>
<text x="160" y="138" text-anchor="middle" fill="rgba(255,255,255,.55)" font-family="sans-serif" font-size="11">無料ツール・アプリ・プロ依頼比較</text>
<rect x="120" y="148" width="80" height="1" rx=".5" fill="rgba(255,255,255,.15)"/>
</svg>
