<svg xmlns="http://www.w3.org/2000/svg" viewBox="0 0 320 180">
<defs>
<linearGradient id="g" x1="0" y1="0" x2="1" y2="1"><stop offset="0%" stop-color="#8b5cf6"/><stop offset="100%" stop-color="#4c1d95"/></linearGradient>
</defs>
<rect width="320" height="180" fill="url(#g)" rx="6"/>
<circle cx="280" cy="20" r="55" fill="rgba(255,255,255,.04)"/>
<circle cx="30" cy="160" r="40" fill="rgba(255,255,255,.04)"/>
<!-- desk + laptop -->
<rect x="100" y="52" width="120" height="6" rx="2" fill="rgba(255,255,255,.15)"/>
<rect x="100" y="58" width="4" height="24" rx="1" fill="rgba(255,255,255,.1)"/>
<rect x="216" y="58" width="4" height="24" rx="1" fill="rgba(255,255,255,.1)"/>
<!-- laptop -->
<rect x="130" y="32" width="40" height="22" rx="2" fill="rgba(255,255,255,.12)" stroke="rgba(255,255,255,.35)" stroke-width=".8"/>
<rect x="134" y="36" width="32" height="14" rx="1" fill="rgba(255,255,255,.08)"/>
<rect x="126" y="54" width="48" height="3" rx="1" fill="rgba(255,255,255,.15)"/>
<!-- coffee cup -->
<rect x="185" y="40" width="14" height="14" rx="2" fill="rgba(255,255,255,.12)" stroke="rgba(255,255,255,.25)" stroke-width=".8"/>
<path d="M199 44c4 0 4 6 0 6" fill="none" stroke="rgba(255,255,255,.2)" stroke-width=".8"/>
<!-- steam -->
<path d="M190 36c1-3 3-3 2-6" fill="none" stroke="rgba(255,255,255,.2)" stroke-width=".8" stroke-linecap="round"/>
<!-- people silhouettes -->
<circle cx="90" cy="38" r="6" fill="rgba(255,255,255,.1)"/>
<circle cx="90" cy="34" r="4" fill="rgba(255,255,255,.2)"/>
<circle cx="240" cy="38" r="6" fill="rgba(255,255,255,.1)"/>
<circle cx="240" cy="34" r="4" fill="rgba(255,255,255,.2)"/>
<!-- wifi icon -->
<path d="M156 26c-8-4-20-4-28 0" fill="none" stroke="rgba(255,255,255,.2)" stroke-width="1" stroke-linecap="round"/>
<path d="M152 30c-5-3-15-3-20 0" fill="none" stroke="rgba(255,255,255,.25)" stroke-width="1" stroke-linecap="round"/>
<circle cx="142" cy="34" r="1.5" fill="rgba(255,255,255,.3)"/>
<!-- text -->
<text x="160" y="104" text-anchor="middle" fill="rgba(255,255,255,.95)" font-family="'Helvetica Neue',sans-serif" font-size="14" font-weight="700" letter-spacing=".5">コワーキングスペース</text>
<text x="160" y="124" text-anchor="middle" fill="rgba(255,255,255,.55)" font-family="sans-serif" font-size="11">都内おすすめ7選・料金比較</text>
<rect x="120" y="134" width="80" height="1" rx=".5" fill="rgba(255,255,255,.15)"/>
</svg>
