<svg xmlns="http://www.w3.org/2000/svg" viewBox="0 0 320 180">
<defs>
<linearGradient id="g" x1="0" y1="0" x2="1" y2="1"><stop offset="0%" stop-color="#ea580c"/><stop offset="100%" stop-color="#7c2d12"/></linearGradient>
</defs>
<rect width="320" height="180" fill="url(#g)" rx="6"/>
<circle cx="280" cy="20" r="55" fill="rgba(255,255,255,.04)"/>
<circle cx="30" cy="160" r="40" fill="rgba(255,255,255,.04)"/>
<!-- 3 platform cards -->
<rect x="56" y="24" width="56" height="60" rx="4" fill="rgba(255,255,255,.12)" stroke="rgba(255,255,255,.3)" stroke-width=".8"/>
<rect x="62" y="30" width="44" height="28" rx="2" fill="rgba(255,255,255,.9)"/>
<rect x="70" y="38" width="28" height="12" rx="1" fill="rgba(200,200,200,.5)"/>
<text x="84" y="74" text-anchor="middle" fill="rgba(255,255,255,.65)" font-family="sans-serif" font-size="8" font-weight="700">Amazon</text>

<rect x="132" y="24" width="56" height="60" rx="4" fill="rgba(255,255,255,.12)" stroke="rgba(255,255,255,.3)" stroke-width=".8"/>
<rect x="138" y="30" width="44" height="28" rx="2" fill="rgba(255,255,255,.15)"/>
<rect x="142" y="34" width="36" height="4" rx="1" fill="rgba(255,255,255,.2)"/>
<text x="160" y="55" text-anchor="middle" fill="rgba(255,255,255,.35)" font-family="sans-serif" font-size="7">20%</text>
<text x="160" y="74" text-anchor="middle" fill="rgba(255,255,255,.65)" font-family="sans-serif" font-size="8" font-weight="700">楽天</text>

<rect x="208" y="24" width="56" height="60" rx="4" fill="rgba(255,255,255,.12)" stroke="rgba(255,255,255,.3)" stroke-width=".8"/>
<rect x="214" y="30" width="44" height="28" rx="2" fill="rgba(255,255,255,.15)"/>
<circle cx="236" cy="44" r="6" fill="rgba(255,255,255,.15)"/>
<path d="M233 44h6M236 41v6" stroke="rgba(255,255,255,.3)" stroke-width="1" stroke-linecap="round"/>
<text x="236" y="74" text-anchor="middle" fill="rgba(255,255,255,.65)" font-family="sans-serif" font-size="8" font-weight="700">メルカリ</text>
<!-- text -->
<text x="160" y="118" text-anchor="middle" fill="rgba(255,255,255,.95)" font-family="'Helvetica Neue',sans-serif" font-size="15" font-weight="700" letter-spacing=".5">EC商品画像ルール</text>
<text x="160" y="138" text-anchor="middle" fill="rgba(255,255,255,.55)" font-family="sans-serif" font-size="11">Amazon・楽天・メルカリ比較</text>
<rect x="120" y="148" width="80" height="1" rx=".5" fill="rgba(255,255,255,.15)"/>
</svg>
