<svg xmlns="http://www.w3.org/2000/svg" viewBox="0 0 320 180">
<defs>
<linearGradient id="g" x1="0" y1="0" x2="1" y2="1"><stop offset="0%" stop-color="#d97706"/><stop offset="100%" stop-color="#78350f"/></linearGradient>
</defs>
<rect width="320" height="180" fill="url(#g)" rx="6"/>
<circle cx="270" cy="25" r="50" fill="rgba(255,255,255,.04)"/>
<circle cx="40" cy="150" r="35" fill="rgba(255,255,255,.04)"/>
<!-- photo frame -->
<rect x="108" y="18" width="64" height="50" rx="4" fill="rgba(255,255,255,.12)" stroke="rgba(255,255,255,.35)" stroke-width="1"/>
<circle cx="128" cy="34" r="5" fill="rgba(255,255,255,.25)"/>
<path d="M112 56l12-14 8 10 6-5 14 14H112z" fill="rgba(255,255,255,.15)"/>
<!-- data lines coming out -->
<rect x="180" y="22" width="50" height="10" rx="2" fill="rgba(255,255,255,.1)" stroke="rgba(255,255,255,.2)" stroke-width=".6"/>
<text x="205" y="30" text-anchor="middle" fill="rgba(255,255,255,.45)" font-family="monospace" font-size="6">ISO 400</text>
<rect x="180" y="36" width="50" height="10" rx="2" fill="rgba(255,255,255,.1)" stroke="rgba(255,255,255,.2)" stroke-width=".6"/>
<text x="205" y="44" text-anchor="middle" fill="rgba(255,255,255,.45)" font-family="monospace" font-size="6">f/2.8</text>
<rect x="180" y="50" width="50" height="10" rx="2" fill="rgba(255,255,255,.12)" stroke="rgba(255,255,255,.3)" stroke-width=".6"/>
<text x="205" y="58" text-anchor="middle" fill="rgba(255,255,255,.55)" font-family="monospace" font-size="6">📍 GPS</text>
<!-- warning icon -->
<circle cx="250" y="56" r="8" fill="rgba(255,100,80,.3)" stroke="rgba(255,255,255,.4)" stroke-width=".8" cy="55"/>
<text x="250" y="59" text-anchor="middle" fill="rgba(255,255,255,.8)" font-family="sans-serif" font-size="10" font-weight="700">!</text>
<!-- text -->
<text x="160" y="100" text-anchor="middle" fill="rgba(255,255,255,.95)" font-family="'Helvetica Neue',sans-serif" font-size="15" font-weight="700" letter-spacing=".5">Exif情報とは？</text>
<text x="160" y="120" text-anchor="middle" fill="rgba(255,255,255,.55)" font-family="sans-serif" font-size="11">位置情報のリスクと削除方法</text>
<rect x="120" y="130" width="80" height="1" rx=".5" fill="rgba(255,255,255,.15)"/>
</svg>
