<svg xmlns="http://www.w3.org/2000/svg" viewBox="0 0 320 180" width="320" height="180">
<defs>
<linearGradient id="g" x1="0" y1="0" x2="1" y2="1"><stop offset="0%" stop-color="#8a6b3a"/><stop offset="100%" stop-color="#6b4e2a"/></linearGradient>
</defs>
<rect width="320" height="180" fill="url(#g)" rx="6"/>
<circle cx="260" cy="30" r="48" fill="rgba(255,255,255,.03)"/>
<!-- cloud outline -->
<path d="M130 68 Q125 68 120 62 Q115 56 122 50 Q122 38 134 36 Q138 26 150 26 Q162 26 168 36 Q180 38 182 50 Q188 56 182 62 Q178 68 172 68 Z" fill="rgba(255,255,255,.12)" stroke="rgba(255,255,255,.4)" stroke-width="1.2"/>
<!-- upload arrow -->
<line x1="151" y1="60" x2="151" y2="76" stroke="rgba(255,255,255,.5)" stroke-width="2" stroke-linecap="round"/>
<polygon points="145,64 151,55 157,64" fill="rgba(255,255,255,.5)"/>
<!-- storage options badges -->
<rect x="192" y="28" width="46" height="14" rx="3" fill="rgba(255,255,255,.1)" stroke="rgba(255,255,255,.22)" stroke-width=".8"/>
<text x="215" y="38" text-anchor="middle" fill="rgba(255,255,255,.6)" font-family="sans-serif" font-size="7.5" font-weight="600">Google Photos</text>
<rect x="192" y="46" width="46" height="14" rx="3" fill="rgba(255,255,255,.08)" stroke="rgba(255,255,255,.18)" stroke-width=".8"/>
<text x="215" y="56" text-anchor="middle" fill="rgba(255,255,255,.5)" font-family="sans-serif" font-size="7.5" font-weight="600">iCloud</text>
<rect x="192" y="64" width="46" height="14" rx="3" fill="rgba(255,255,255,.06)" stroke="rgba(255,255,255,.15)" stroke-width=".8"/>
<text x="215" y="74" text-anchor="middle" fill="rgba(255,255,255,.4)" font-family="sans-serif" font-size="7.5" font-weight="600">HDD外付け</text>
<!-- text -->
<text x="160" y="112" text-anchor="middle" fill="rgba(255,255,255,.95)" font-family="'Helvetica Neue',sans-serif" font-size="14" font-weight="700" letter-spacing=".5">写真バックアップ比較</text>
<text x="160" y="132" text-anchor="middle" fill="rgba(255,255,255,.55)" font-family="sans-serif" font-size="11">クラウド・外付けHDD・NAS</text>
<rect x="120" y="144" width="80" height="1" rx=".5" fill="rgba(255,255,255,.15)"/>
<text x="160" y="162" text-anchor="middle" fill="rgba(224,208,184,.7)" font-family="sans-serif" font-size="10">写真・撮影</text>
</svg>
