<svg xmlns="http://www.w3.org/2000/svg" viewBox="0 0 320 180" width="320" height="180">
<defs>
<linearGradient id="g" x1="0" y1="0" x2="1" y2="1"><stop offset="0%" stop-color="#3a8a6b"/><stop offset="100%" stop-color="#2a6b4e"/></linearGradient>
</defs>
<rect width="320" height="180" fill="url(#g)" rx="6"/>
<circle cx="260" cy="30" r="48" fill="rgba(255,255,255,.03)"/>
<!-- checklist -->
<rect x="112" y="24" width="76" height="72" rx="6" fill="rgba(255,255,255,.1)" stroke="rgba(255,255,255,.3)" stroke-width="1"/>
<!-- check items -->
<circle cx="125" cy="42" r="4" fill="rgba(255,255,255,.2)" stroke="rgba(255,255,255,.4)" stroke-width=".8"/>
<text x="125" y="46" text-anchor="middle" fill="rgba(255,255,255,.9)" font-family="sans-serif" font-size="7" font-weight="700">✓</text>
<rect x="134" y="39" width="46" height="3" rx="1.5" fill="rgba(255,255,255,.35)"/>
<circle cx="125" cy="56" r="4" fill="rgba(255,255,255,.2)" stroke="rgba(255,255,255,.4)" stroke-width=".8"/>
<text x="125" y="60" text-anchor="middle" fill="rgba(255,255,255,.9)" font-family="sans-serif" font-size="7" font-weight="700">✓</text>
<rect x="134" y="53" width="36" height="3" rx="1.5" fill="rgba(255,255,255,.25)"/>
<circle cx="125" cy="70" r="4" fill="rgba(255,255,255,.15)" stroke="rgba(255,255,255,.3)" stroke-width=".8"/>
<rect x="134" y="67" width="42" height="3" rx="1.5" fill="rgba(255,255,255,.2)"/>
<circle cx="125" cy="84" r="4" fill="rgba(255,255,255,.12)" stroke="rgba(255,255,255,.25)" stroke-width=".8"/>
<rect x="134" y="81" width="30" height="3" rx="1.5" fill="rgba(255,255,255,.15)"/>
<!-- 楽天 badge -->
<rect x="196" y="28" width="36" height="18" rx="4" fill="rgba(220,60,60,.25)" stroke="rgba(255,120,120,.4)" stroke-width=".8"/>
<text x="214" y="40" text-anchor="middle" fill="rgba(255,180,180,.85)" font-family="sans-serif" font-size="9" font-weight="700">楽天</text>
<!-- text -->
<text x="160" y="116" text-anchor="middle" fill="rgba(255,255,255,.95)" font-family="'Helvetica Neue',sans-serif" font-size="14" font-weight="700" letter-spacing=".5">楽天画像ルール</text>
<text x="160" y="136" text-anchor="middle" fill="rgba(255,255,255,.55)" font-family="sans-serif" font-size="11">出品画像の規定まとめ</text>
<rect x="120" y="148" width="80" height="1" rx=".5" fill="rgba(255,255,255,.15)"/>
<text x="160" y="166" text-anchor="middle" fill="rgba(184,224,200,.7)" font-family="sans-serif" font-size="10">EC・実務</text>
</svg>
