<svg xmlns="http://www.w3.org/2000/svg" viewBox="0 0 320 180">
<defs>
<linearGradient id="g" x1="0" y1="0" x2="1" y2="1"><stop offset="0%" stop-color="#059669"/><stop offset="100%" stop-color="#064e3b"/></linearGradient>
</defs>
<rect width="320" height="180" fill="url(#g)" rx="6"/>
<circle cx="280" cy="20" r="55" fill="rgba(255,255,255,.04)"/>
<circle cx="30" cy="160" r="40" fill="rgba(255,255,255,.04)"/>
<!-- comparison table -->
<rect x="80" y="22" width="160" height="68" rx="5" fill="rgba(255,255,255,.1)" stroke="rgba(255,255,255,.25)" stroke-width=".8"/>
<!-- header row -->
<rect x="80" y="22" width="160" height="16" rx="5" fill="rgba(255,255,255,.08)"/>
<text x="110" y="34" text-anchor="middle" fill="rgba(255,255,255,.5)" font-family="sans-serif" font-size="7" font-weight="600">サービス</text>
<text x="165" y="34" text-anchor="middle" fill="rgba(255,255,255,.5)" font-family="sans-serif" font-size="7" font-weight="600">料金</text>
<text x="215" y="34" text-anchor="middle" fill="rgba(255,255,255,.5)" font-family="sans-serif" font-size="7" font-weight="600">納期</text>
<!-- rows -->
<rect x="88" y="44" width="32" height="3" rx="1.5" fill="rgba(255,255,255,.2)"/>
<rect x="150" y="44" width="24" height="3" rx="1.5" fill="rgba(255,255,255,.15)"/>
<rect x="205" y="44" width="18" height="3" rx="1.5" fill="rgba(255,255,255,.15)"/>
<rect x="88" y="54" width="28" height="3" rx="1.5" fill="rgba(255,255,255,.2)"/>
<rect x="150" y="54" width="20" height="3" rx="1.5" fill="rgba(255,255,255,.15)"/>
<rect x="205" y="54" width="22" height="3" rx="1.5" fill="rgba(255,255,255,.15)"/>
<rect x="88" y="64" width="36" height="3" rx="1.5" fill="rgba(255,255,255,.2)"/>
<rect x="150" y="64" width="28" height="3" rx="1.5" fill="rgba(255,255,255,.15)"/>
<rect x="205" y="64" width="16" height="3" rx="1.5" fill="rgba(255,255,255,.15)"/>
<rect x="88" y="74" width="26" height="3" rx="1.5" fill="rgba(255,255,255,.2)"/>
<rect x="150" y="74" width="22" height="3" rx="1.5" fill="rgba(255,255,255,.15)"/>
<rect x="205" y="74" width="20" height="3" rx="1.5" fill="rgba(255,255,255,.15)"/>
<!-- 7 badge -->
<rect x="252" y="46" width="30" height="20" rx="10" fill="rgba(255,255,255,.15)" stroke="rgba(255,255,255,.35)" stroke-width=".8"/>
<text x="267" y="55" text-anchor="middle" fill="rgba(255,255,255,.7)" font-family="sans-serif" font-size="10" font-weight="700">×7</text>
<!-- text -->
<text x="160" y="118" text-anchor="middle" fill="rgba(255,255,255,.95)" font-family="'Helvetica Neue',sans-serif" font-size="15" font-weight="700" letter-spacing=".5">レタッチ外注7社</text>
<text x="160" y="138" text-anchor="middle" fill="rgba(255,255,255,.55)" font-family="sans-serif" font-size="11">個人でも依頼できるサービス比較</text>
<rect x="120" y="148" width="80" height="1" rx=".5" fill="rgba(255,255,255,.15)"/>
</svg>
