<svg xmlns="http://www.w3.org/2000/svg" viewBox="0 0 320 180" width="320" height="180">
<defs>
<linearGradient id="g" x1="0" y1="0" x2="1" y2="1"><stop offset="0%" stop-color="#334155"/><stop offset="100%" stop-color="#1e293b"/></linearGradient>
<linearGradient id="s" x1="0" y1="0" x2="0" y2="1"><stop offset="0%" stop-color="rgba(255,255,255,.16)"/><stop offset="100%" stop-color="rgba(255,255,255,.04)"/></linearGradient>
</defs>
<rect width="320" height="180" fill="url(#g)" rx="6"/>
<circle cx="260" cy="30" r="50" fill="rgba(255,255,255,.03)"/>
<circle cx="50" cy="150" r="35" fill="rgba(255,255,255,.03)"/>
<!-- SD card -->
<path d="M125 22h46l16 16v50a5 5 0 01-5 5h-57a5 5 0 01-5-5V27a5 5 0 015-5z" fill="url(#s)" stroke="rgba(255,255,255,.4)" stroke-width="1.2"/>
<!-- pins -->
<rect x="134" y="30" width="5" height="18" rx="1" fill="rgba(255,255,255,.25)"/>
<rect x="144" y="30" width="5" height="18" rx="1" fill="rgba(255,255,255,.25)"/>
<rect x="154" y="30" width="5" height="18" rx="1" fill="rgba(255,255,255,.25)"/>
<rect x="164" y="30" width="5" height="14" rx="1" fill="rgba(255,255,255,.2)"/>
<!-- label -->
<rect x="130" y="58" width="40" height="4" rx="2" fill="rgba(255,255,255,.15)"/>
<rect x="130" y="66" width="28" height="3" rx="1.5" fill="rgba(255,255,255,.1)"/>
<!-- speed badges -->
<rect x="200" y="32" width="42" height="16" rx="3" fill="rgba(255,255,255,.1)" stroke="rgba(255,255,255,.25)" stroke-width=".8"/>
<text x="221" y="43" text-anchor="middle" fill="rgba(255,255,255,.6)" font-family="sans-serif" font-size="8" font-weight="700">UHS-II</text>
<rect x="200" y="54" width="42" height="16" rx="3" fill="rgba(255,255,255,.08)" stroke="rgba(255,255,255,.2)" stroke-width=".8"/>
<text x="221" y="65" text-anchor="middle" fill="rgba(255,255,255,.5)" font-family="sans-serif" font-size="8" font-weight="700">V60</text>
<!-- text -->
<text x="160" y="118" text-anchor="middle" fill="rgba(255,255,255,.95)" font-family="'Helvetica Neue',sans-serif" font-size="15" font-weight="700" letter-spacing=".5">SDカードの選び方</text>
<text x="160" y="138" text-anchor="middle" fill="rgba(255,255,255,.55)" font-family="sans-serif" font-size="11">スペックと失敗しない買い方</text>
<rect x="120" y="148" width="80" height="1" rx=".5" fill="rgba(255,255,255,.15)"/>
</svg>
