<svg xmlns="http://www.w3.org/2000/svg" viewBox="0 0 320 180">
<defs>
<linearGradient id="g" x1="0" y1="0" x2="1" y2="1"><stop offset="0%" stop-color="#7c3aed"/><stop offset="100%" stop-color="#3b0764"/></linearGradient>
</defs>
<rect width="320" height="180" fill="url(#g)" rx="6"/>
<circle cx="280" cy="20" r="55" fill="rgba(255,255,255,.04)"/>
<circle cx="30" cy="160" r="40" fill="rgba(255,255,255,.04)"/>
<!-- video side -->
<rect x="56" y="28" width="80" height="52" rx="5" fill="rgba(255,255,255,.1)" stroke="rgba(255,255,255,.3)" stroke-width=".8"/>
<path d="M88 46v16l14-8z" fill="rgba(255,255,255,.5)"/>
<!-- timeline bar -->
<rect x="62" y="70" width="68" height="3" rx="1.5" fill="rgba(255,255,255,.15)"/>
<rect x="62" y="70" width="30" height="3" rx="1.5" fill="rgba(255,255,255,.35)"/>
<text x="96" y="88" text-anchor="middle" fill="rgba(255,255,255,.5)" font-family="sans-serif" font-size="9" font-weight="600">動画編集</text>
<!-- VS -->
<circle cx="160" cy="54" r="14" fill="rgba(255,255,255,.1)" stroke="rgba(255,255,255,.3)" stroke-width="1"/>
<text x="160" y="59" text-anchor="middle" fill="rgba(255,255,255,.8)" font-family="sans-serif" font-size="13" font-weight="800">VS</text>
<!-- retouch side -->
<rect x="184" y="28" width="80" height="52" rx="5" fill="rgba(255,255,255,.1)" stroke="rgba(255,255,255,.3)" stroke-width=".8"/>
<rect x="196" y="36" width="32" height="24" rx="2" fill="rgba(255,255,255,.08)"/>
<circle cx="212" cy="48" r="6" fill="rgba(255,255,255,.12)" stroke="rgba(255,255,255,.3)" stroke-width=".8"/>
<!-- brush strokes -->
<path d="M240 38l8 18" stroke="rgba(255,255,255,.3)" stroke-width="2" stroke-linecap="round"/>
<circle cx="248" cy="56" r="2" fill="rgba(255,255,255,.35)"/>
<text x="224" y="88" text-anchor="middle" fill="rgba(255,255,255,.5)" font-family="sans-serif" font-size="9" font-weight="600">レタッチ</text>
<!-- text -->
<text x="160" y="118" text-anchor="middle" fill="rgba(255,255,255,.95)" font-family="'Helvetica Neue',sans-serif" font-size="15" font-weight="700" letter-spacing=".5">副業で稼ぐならどっち？</text>
<text x="160" y="138" text-anchor="middle" fill="rgba(255,255,255,.55)" font-family="sans-serif" font-size="11">動画編集 vs レタッチャー</text>
<rect x="120" y="148" width="80" height="1" rx=".5" fill="rgba(255,255,255,.15)"/>
</svg>
