<svg xmlns="http://www.w3.org/2000/svg" viewBox="0 0 320 180">
<defs><linearGradient id="g" x1="0" y1="0" x2="1" y2="1"><stop offset="0%" stop-color="#1a8a7a"/><stop offset="100%" stop-color="#0f5e52"/></linearGradient></defs>
<rect width="320" height="180" fill="url(#g)" rx="6"/>
<circle cx="50" cy="30" r="45" fill="rgba(255,255,255,.03)"/>
<circle cx="280" cy="155" r="40" fill="rgba(255,255,255,.03)"/>
<rect x="100" y="26" width="44" height="44" rx="3" fill="rgba(255,255,255,.08)" stroke="rgba(255,255,255,.3)" stroke-width="1"/>
<circle cx="116" cy="40" r="6" fill="rgba(255,255,255,.12)"/>
<path d="M102 64 L116 50 L126 56 L142 42" fill="none" stroke="rgba(255,255,255,.1)" stroke-width="1"/>
<path d="M156 48 L176 48" stroke="rgba(255,255,255,.3)" stroke-width="1.5" stroke-linecap="round" stroke-dasharray="3 2"/>
<path d="M172 44 L178 48 L172 52" fill="none" stroke="rgba(255,255,255,.3)" stroke-width="1.5" stroke-linecap="round"/>
<rect x="188" y="26" width="44" height="44" rx="3" fill="rgba(255,255,255,.04)"/>
<circle cx="204" cy="40" r="6" fill="rgba(255,255,255,.15)"/>
<path d="M188 26 L192 26 L192 30" stroke="rgba(255,255,255,.3)" stroke-width="1" stroke-linecap="round" fill="none"/>
<path d="M228 26 L232 26 L232 30" stroke="rgba(255,255,255,.3)" stroke-width="1" stroke-linecap="round" fill="none"/>
<path d="M188 66 L192 66 L192 70" stroke="rgba(255,255,255,.3)" stroke-width="1" stroke-linecap="round" fill="none"/>
<path d="M228 66 L232 66 L232 70" stroke="rgba(255,255,255,.3)" stroke-width="1" stroke-linecap="round" fill="none"/>
<text x="160" y="104" text-anchor="middle" fill="rgba(255,255,255,.95)" font-family="sans-serif" font-size="13" font-weight="600">背景切り抜き外注比較</text>
<text x="160" y="124" text-anchor="middle" fill="rgba(255,255,255,.6)" font-family="sans-serif" font-size="11">料金・精度・納期で選ぶ</text>
<rect x="120" y="136" width="80" height="1" rx=".5" fill="rgba(255,255,255,.15)"/>
</svg>
