<svg xmlns="http://www.w3.org/2000/svg" viewBox="0 0 320 180">
<defs>
<linearGradient id="g" x1="0" y1="0" x2="1" y2="1"><stop offset="0%" stop-color="#2d8659"/><stop offset="100%" stop-color="#1a5c3a"/></linearGradient>
<linearGradient id="s" x1="0" y1="0" x2="0" y2="1"><stop offset="0%" stop-color="rgba(255,255,255,.16)"/><stop offset="100%" stop-color="rgba(255,255,255,.04)"/></linearGradient>
</defs>
<rect width="320" height="180" fill="url(#g)" rx="6"/>
<circle cx="50" cy="30" r="45" fill="rgba(255,255,255,.03)"/>
<circle cx="280" cy="150" r="40" fill="rgba(255,255,255,.03)"/>
<!-- document icon -->
<rect x="118" y="24" width="52" height="62" rx="4" fill="url(#s)" stroke="rgba(255,255,255,.4)" stroke-width="1.2"/>
<line x1="130" y1="40" x2="158" y2="40" stroke="rgba(255,255,255,.35)" stroke-width="1.5" stroke-linecap="round"/>
<line x1="130" y1="50" x2="158" y2="50" stroke="rgba(255,255,255,.25)" stroke-width="1.5" stroke-linecap="round"/>
<line x1="130" y1="60" x2="150" y2="60" stroke="rgba(255,255,255,.25)" stroke-width="1.5" stroke-linecap="round"/>
<line x1="130" y1="70" x2="155" y2="70" stroke="rgba(255,255,255,.2)" stroke-width="1.5" stroke-linecap="round"/>
<!-- pencil icon -->
<rect x="180" y="30" width="8" height="40" rx="1" fill="rgba(255,255,255,.15)" stroke="rgba(255,255,255,.35)" stroke-width=".8" transform="rotate(-15 184 50)"/>
<path d="M176 72 L184 58 L188 62 Z" fill="rgba(255,255,255,.25)"/>
<!-- cart icon -->
<circle cx="90" cy="52" r="18" fill="rgba(255,255,255,.06)" stroke="rgba(255,255,255,.25)" stroke-width=".8"/>
<path d="M82 46 L86 46 L92 58 L98 58" fill="none" stroke="rgba(255,255,255,.4)" stroke-width="1.2" stroke-linecap="round"/>
<circle cx="90" cy="62" r="2" fill="rgba(255,255,255,.4)"/>
<circle cx="96" cy="62" r="2" fill="rgba(255,255,255,.4)"/>
<!-- text -->
<text x="160" y="116" text-anchor="middle" fill="rgba(255,255,255,.95)" font-family="sans-serif" font-size="14" font-weight="600">EC商品説明文の書き方</text>
<text x="160" y="136" text-anchor="middle" fill="rgba(255,255,255,.6)" font-family="sans-serif" font-size="11">売れるページに共通するポイント</text>
<rect x="120" y="148" width="80" height="1" rx=".5" fill="rgba(255,255,255,.15)"/>
</svg>
